<svg width="147" height="38" viewBox="0 0 147 38" fill="none" xmlns="http://www.w3.org/2000/svg">
<g filter="url(#filter0_d)">
<path d="M43.536 21V9.576H46.872V11.304C47.56 9.928 48.688 9.24 50.256 9.24C51.92 9.24 53.08 9.904 53.736 11.232C54.648 9.904 55.864 9.24 57.384 9.24C58.488 9.24 59.4 9.576 60.12 10.248C60.84 10.92 61.2 11.872 61.2 13.104V21H57.744V14.136C57.744 13.432 57.592 12.912 57.288 12.576C57 12.24 56.624 12.072 56.16 12.072C55.568 12.072 55.072 12.328 54.672 12.84C54.288 13.352 54.096 14.112 54.096 15.12V21H50.64V14.16C50.64 12.768 50.104 12.072 49.032 12.072C48.472 12.072 47.992 12.336 47.592 12.864C47.192 13.376 46.992 14.128 46.992 15.12V21H43.536ZM63.8484 5.904C63.8484 5.296 64.0404 4.808 64.4244 4.44C64.8084 4.056 65.3044 3.864 65.9124 3.864C66.5204 3.864 67.0164 4.056 67.4004 4.44C67.7844 4.808 67.9764 5.296 67.9764 5.904C67.9764 6.48 67.7844 6.96 67.4004 7.344C67.0324 7.712 66.5364 7.896 65.9124 7.896C65.2884 7.896 64.7844 7.712 64.4004 7.344C64.0324 6.96 63.8484 6.48 63.8484 5.904ZM64.1844 21V9.576H67.6404V21H64.1844ZM70.0035 15.288C70.0035 13.432 70.5475 11.96 71.6355 10.872C72.7235 9.784 74.1635 9.24 75.9555 9.24C78.3395 9.24 79.9955 10.336 80.9235 12.528L77.8035 13.68C77.5315 12.496 76.8675 11.904 75.8115 11.904C75.0275 11.904 74.4515 12.232 74.0835 12.888C73.7155 13.544 73.5315 14.344 73.5315 15.288C73.5315 16.2 73.7075 16.992 74.0595 17.664C74.4275 18.32 75.0195 18.648 75.8355 18.648C76.7315 18.648 77.3795 18.112 77.7795 17.04L80.9715 18.24C80.4435 19.2 79.7795 19.96 78.9795 20.52C78.1955 21.064 77.1635 21.336 75.8835 21.336C74.1075 21.336 72.6835 20.8 71.6115 19.728C70.5395 18.656 70.0035 17.176 70.0035 15.288ZM91.2111 9.504L90.5871 12.672C90.2511 12.416 89.7951 12.288 89.2191 12.288C88.5311 12.288 87.9071 12.56 87.3471 13.104C86.8031 13.632 86.5311 14.488 86.5311 15.672V21H83.0751V9.576H86.3151V11.496C87.0031 9.992 88.1471 9.24 89.7471 9.24C90.3071 9.24 90.7951 9.328 91.2111 9.504ZM97.8696 9.24C99.6776 9.24 101.126 9.784 102.214 10.872C103.302 11.96 103.846 13.432 103.846 15.288C103.846 17.144 103.302 18.616 102.214 19.704C101.126 20.792 99.6776 21.336 97.8696 21.336C96.0776 21.336 94.6376 20.792 93.5496 19.704C92.4616 18.616 91.9176 17.144 91.9176 15.288C91.9176 13.432 92.4616 11.96 93.5496 10.872C94.6376 9.784 96.0776 9.24 97.8696 9.24ZM97.8696 18.744C98.7016 18.744 99.3176 18.432 99.7176 17.808C100.134 17.168 100.342 16.328 100.342 15.288C100.342 14.248 100.134 13.416 99.7176 12.792C99.3176 12.152 98.7016 11.832 97.8696 11.832C97.0536 11.832 96.4376 12.152 96.0216 12.792C95.6216 13.432 95.4216 14.264 95.4216 15.288C95.4216 16.312 95.6216 17.144 96.0216 17.784C96.4376 18.424 97.0536 18.744 97.8696 18.744ZM114.944 4.2L120.992 21H117.272L115.928 17.112H109.904L108.56 21H105.032L111.08 4.2H114.944ZM112.928 8.136H112.88L110.888 14.256H114.944C113.792 10.896 113.12 8.856 112.928 8.136ZM129.471 15.096H126.663V21H123.087V4.2H129.471C131.551 4.2 133.175 4.64 134.343 5.52C135.527 6.4 136.119 7.744 136.119 9.552C136.119 11.392 135.519 12.776 134.319 13.704C133.119 14.632 131.503 15.096 129.471 15.096ZM132.447 9.552C132.447 8.672 132.183 8.056 131.655 7.704C131.127 7.352 130.279 7.176 129.111 7.176H126.663V12.12H129.111C130.247 12.12 131.087 11.92 131.631 11.52C132.175 11.104 132.447 10.448 132.447 9.552ZM137.981 5.904C137.981 5.296 138.173 4.808 138.557 4.44C138.941 4.056 139.437 3.864 140.045 3.864C140.653 3.864 141.149 4.056 141.533 4.44C141.917 4.808 142.109 5.296 142.109 5.904C142.109 6.48 141.917 6.96 141.533 7.344C141.165 7.712 140.669 7.896 140.045 7.896C139.421 7.896 138.917 7.712 138.533 7.344C138.165 6.96 137.981 6.48 137.981 5.904ZM138.317 21V9.576H141.773V21H138.317Z" fill="black"/>
<g clip-path="url(#clip0)">
<path d="M19.5 2.5L6.58337 8.75L19.5 15L32.4167 8.75L19.5 2.5Z" stroke="black" stroke-width="3" stroke-linecap="square"/>
<path d="M6.58337 21.25L19.5 27.5L32.4167 21.25" stroke="#58BF8E" stroke-width="3" stroke-linecap="square" stroke-linejoin="round"/>
<path d="M6.58337 15L19.5 21.25L32.4167 15" stroke="#58BF8E" stroke-width="3" stroke-linecap="square" stroke-linejoin="round"/>
</g>
</g>
<defs>
<filter id="filter0_d" x="0" y="0" width="146.109" height="38" filterUnits="userSpaceOnUse" color-interpolation-filters="sRGB">
<feFlood flood-opacity="0" result="BackgroundImageFix"/>
<feColorMatrix in="SourceAlpha" type="matrix" values="0 0 0 0 0 0 0 0 0 0 0 0 0 0 0 0 0 0 127 0"/>
<feOffset dy="4"/>
<feGaussianBlur stdDeviation="2"/>
<feColorMatrix type="matrix" values="0 0 0 0 0 0 0 0 0 0 0 0 0 0 0 0 0 0 0.25 0"/>
<feBlend mode="normal" in2="BackgroundImageFix" result="effect1_dropShadow"/>
<feBlend mode="normal" in="SourceGraphic" in2="effect1_dropShadow" result="shape"/>
</filter>
<clipPath id="clip0">
<rect width="31" height="30" fill="white" transform="translate(4)"/>
</clipPath>
</defs>
</svg>
